# Blender v2.90.1 OBJ File: ''
# www.blender.org
mtllib icosas.mtl
o Icosphere
v 0.000000 0.000000 0.000000
v 1.447200 1.105570 1.051440
v -0.552770 1.105570 1.701280
v -1.788850 1.105570 0.000000
v -0.552770 1.105570 -1.701280
v 1.447200 1.105570 -1.051440
v 0.552770 2.894430 1.701280
v -1.447200 2.894430 1.051440
v -1.447200 2.894430 -1.051440
v 0.552770 2.894430 -1.701280
v 1.788850 2.894430 0.000000
v 0.000000 4.000000 0.000000
vt 0.818181 0.000000
vt 0.727272 0.157461
vt 0.909090 0.157461
vt 0.636363 0.000000
vt 0.545454 0.157461
vt 0.090909 0.000000
vt 0.000000 0.157461
vt 0.181818 0.157461
vt 0.272727 0.000000
vt 0.363636 0.157461
vt 0.454545 0.000000
vt 0.636363 0.314921
vt 0.818181 0.314921
vt 0.090909 0.314921
vt 0.272727 0.314921
vt 0.454545 0.314921
vt 1.000000 0.314921
vt 0.727272 0.472382
vt 0.909090 0.472382
vt 0.181818 0.472382
vt 0.363636 0.472382
vt 0.545454 0.472382
vn 0.1876 -0.7947 0.5774
vn 0.6071 -0.7947 0.0000
vn -0.4911 -0.7947 0.3568
vn -0.4911 -0.7947 -0.3568
vn 0.1876 -0.7947 -0.5774
vn 0.9822 -0.1876 0.0000
vn 0.3035 -0.1876 0.9342
vn -0.7946 -0.1876 0.5774
vn -0.7946 -0.1876 -0.5774
vn 0.3035 -0.1876 -0.9342
vn 0.7946 0.1876 0.5774
vn -0.3035 0.1876 0.9342
vn -0.9822 0.1876 0.0000
vn -0.3035 0.1876 -0.9342
vn 0.7946 0.1876 -0.5774
vn 0.4911 0.7947 0.3568
vn -0.1876 0.7947 0.5774
vn -0.6071 0.7947 0.0000
vn -0.1876 0.7947 -0.5774
vn 0.4911 0.7947 -0.3568
usemtl None
s off
f 1/1/1 2/2/1 3/3/1
f 2/2/2 1/4/2 6/5/2
f 1/6/3 3/7/3 4/8/3
f 1/9/4 4/8/4 5/10/4
f 1/11/5 5/10/5 6/5/5
f 2/2/6 6/5/6 11/12/6
f 3/3/7 2/2/7 7/13/7
f 4/8/8 3/7/8 8/14/8
f 5/10/9 4/8/9 9/15/9
f 6/5/10 5/10/10 10/16/10
f 2/2/11 11/12/11 7/13/11
f 3/3/12 7/13/12 8/17/12
f 4/8/13 8/14/13 9/15/13
f 5/10/14 9/15/14 10/16/14
f 6/5/15 10/16/15 11/12/15
f 7/13/16 11/12/16 12/18/16
f 8/17/17 7/13/17 12/19/17
f 9/15/18 8/14/18 12/20/18
f 10/16/19 9/15/19 12/21/19
f 11/12/20 10/16/20 12/22/20
o Icosphere.001
v 1.997657 4.995313 2.985004
v 2.721256 5.548098 3.510724
v 1.721272 5.548098 3.835644
v 1.103232 5.548098 2.985004
v 1.721272 5.548098 2.134364
v 2.721256 5.548098 2.459284
v 2.274042 6.442528 3.835644
v 1.274057 6.442528 3.510724
v 1.274057 6.442528 2.459284
v 2.274042 6.442528 2.134364
v 2.892081 6.442528 2.985004
v 1.997657 6.995313 2.985004
vt 0.818181 0.000000
vt 0.727272 0.157461
vt 0.909090 0.157461
vt 0.636363 0.000000
vt 0.545454 0.157461
vt 0.090909 0.000000
vt 0.000000 0.157461
vt 0.181818 0.157461
vt 0.272727 0.000000
vt 0.363636 0.157461
vt 0.454545 0.000000
vt 0.636363 0.314921
vt 0.818181 0.314921
vt 0.090909 0.314921
vt 0.272727 0.314921
vt 0.454545 0.314921
vt 1.000000 0.314921
vt 0.727272 0.472382
vt 0.909090 0.472382
vt 0.181818 0.472382
vt 0.363636 0.472382
vt 0.545454 0.472382
vn 0.1876 -0.7947 0.5774
vn 0.6071 -0.7947 0.0000
vn -0.4911 -0.7947 0.3568
vn -0.4911 -0.7947 -0.3568
vn 0.1876 -0.7947 -0.5774
vn 0.9822 -0.1876 0.0000
vn 0.3035 -0.1876 0.9342
vn -0.7946 -0.1876 0.5774
vn -0.7946 -0.1876 -0.5774
vn 0.3035 -0.1876 -0.9342
vn 0.7946 0.1876 0.5774
vn -0.3035 0.1876 0.9342
vn -0.9822 0.1876 0.0000
vn -0.3035 0.1876 -0.9342
vn 0.7946 0.1876 -0.5774
vn 0.4911 0.7947 0.3568
vn -0.1876 0.7947 0.5774
vn -0.6071 0.7947 0.0000
vn -0.1876 0.7947 -0.5774
vn 0.4911 0.7947 -0.3568
usemtl None
s off
f 13/23/21 14/24/21 15/25/21
f 14/24/22 13/26/22 18/27/22
f 13/28/23 15/29/23 16/30/23
f 13/31/24 16/30/24 17/32/24
f 13/33/25 17/32/25 18/27/25
f 14/24/26 18/27/26 23/34/26
f 15/25/27 14/24/27 19/35/27
f 16/30/28 15/29/28 20/36/28
f 17/32/29 16/30/29 21/37/29
f 18/27/30 17/32/30 22/38/30
f 14/24/31 23/34/31 19/35/31
f 15/25/32 19/35/32 20/39/32
f 16/30/33 20/36/33 21/37/33
f 17/32/34 21/37/34 22/38/34
f 18/27/35 22/38/35 23/34/35
f 19/35/36 23/34/36 24/40/36
f 20/39/37 19/35/37 24/41/37
f 21/37/38 20/36/38 24/42/38
f 22/38/39 21/37/39 24/43/39
f 23/34/40 22/38/40 24/44/40
o Icosphere.002
v -1.997657 4.995313 2.985004
v -1.274057 5.548098 3.510724
v -2.274042 5.548098 3.835644
v -2.892081 5.548098 2.985004
v -2.274042 5.548098 2.134364
v -1.274057 5.548098 2.459284
v -1.721272 6.442528 3.835644
v -2.721256 6.442528 3.510724
v -2.721256 6.442528 2.459284
v -1.721272 6.442528 2.134364
v -1.103232 6.442528 2.985004
v -1.997657 6.995313 2.985004
vt 0.818181 0.000000
vt 0.727272 0.157461
vt 0.909090 0.157461
vt 0.636363 0.000000
vt 0.545454 0.157461
vt 0.090909 0.000000
vt 0.000000 0.157461
vt 0.181818 0.157461
vt 0.272727 0.000000
vt 0.363636 0.157461
vt 0.454545 0.000000
vt 0.636363 0.314921
vt 0.818181 0.314921
vt 0.090909 0.314921
vt 0.272727 0.314921
vt 0.454545 0.314921
vt 1.000000 0.314921
vt 0.727272 0.472382
vt 0.909090 0.472382
vt 0.181818 0.472382
vt 0.363636 0.472382
vt 0.545454 0.472382
vn 0.1876 -0.7947 0.5774
vn 0.6071 -0.7947 0.0000
vn -0.4911 -0.7947 0.3568
vn -0.4911 -0.7947 -0.3568
vn 0.1876 -0.7947 -0.5774
vn 0.9822 -0.1876 0.0000
vn 0.3035 -0.1876 0.9342
vn -0.7946 -0.1876 0.5774
vn -0.7946 -0.1876 -0.5774
vn 0.3035 -0.1876 -0.9342
vn 0.7946 0.1876 0.5774
vn -0.3035 0.1876 0.9342
vn -0.9822 0.1876 0.0000
vn -0.3035 0.1876 -0.9342
vn 0.7946 0.1876 -0.5774
vn 0.4911 0.7947 0.3568
vn -0.1876 0.7947 0.5774
vn -0.6071 0.7947 0.0000
vn -0.1876 0.7947 -0.5774
vn 0.4911 0.7947 -0.3568
usemtl None
s off
f 25/45/41 26/46/41 27/47/41
f 26/46/42 25/48/42 30/49/42
f 25/50/43 27/51/43 28/52/43
f 25/53/44 28/52/44 29/54/44
f 25/55/45 29/54/45 30/49/45
f 26/46/46 30/49/46 35/56/46
f 27/47/47 26/46/47 31/57/47
f 28/52/48 27/51/48 32/58/48
f 29/54/49 28/52/49 33/59/49
f 30/49/50 29/54/50 34/60/50
f 26/46/51 35/56/51 31/57/51
f 27/47/52 31/57/52 32/61/52
f 28/52/53 32/58/53 33/59/53
f 29/54/54 33/59/54 34/60/54
f 30/49/55 34/60/55 35/56/55
f 31/57/56 35/56/56 36/62/56
f 32/61/57 31/57/57 36/63/57
f 33/59/58 32/58/58 36/64/58
f 34/60/59 33/59/59 36/65/59
f 35/56/60 34/60/60 36/66/60
o Icosphere.003
v 1.997657 4.995313 -2.939080
v 2.721256 5.548098 -2.413361
v 1.721272 5.548098 -2.088440
v 1.103232 5.548098 -2.939080
v 1.721272 5.548098 -3.789721
v 2.721256 5.548098 -3.464800
v 2.274042 6.442528 -2.088440
v 1.274057 6.442528 -2.413361
v 1.274057 6.442528 -3.464800
v 2.274042 6.442528 -3.789721
v 2.892081 6.442528 -2.939080
v 1.997657 6.995313 -2.939080
vt 0.818181 0.000000
vt 0.727272 0.157461
vt 0.909090 0.157461
vt 0.636363 0.000000
vt 0.545454 0.157461
vt 0.090909 0.000000
vt 0.000000 0.157461
vt 0.181818 0.157461
vt 0.272727 0.000000
vt 0.363636 0.157461
vt 0.454545 0.000000
vt 0.636363 0.314921
vt 0.818181 0.314921
vt 0.090909 0.314921
vt 0.272727 0.314921
vt 0.454545 0.314921
vt 1.000000 0.314921
vt 0.727272 0.472382
vt 0.909090 0.472382
vt 0.181818 0.472382
vt 0.363636 0.472382
vt 0.545454 0.472382
vn 0.1876 -0.7947 0.5774
vn 0.6071 -0.7947 0.0000
vn -0.4911 -0.7947 0.3568
vn -0.4911 -0.7947 -0.3568
vn 0.1876 -0.7947 -0.5774
vn 0.9822 -0.1876 0.0000
vn 0.3035 -0.1876 0.9342
vn -0.7946 -0.1876 0.5774
vn -0.7946 -0.1876 -0.5774
vn 0.3035 -0.1876 -0.9342
vn 0.7946 0.1876 0.5774
vn -0.3035 0.1876 0.9342
vn -0.9822 0.1876 0.0000
vn -0.3035 0.1876 -0.9342
vn 0.7946 0.1876 -0.5774
vn 0.4911 0.7947 0.3568
vn -0.1876 0.7947 0.5774
vn -0.6071 0.7947 0.0000
vn -0.1876 0.7947 -0.5774
vn 0.4911 0.7947 -0.3568
usemtl None
s off
f 37/67/61 38/68/61 39/69/61
f 38/68/62 37/70/62 42/71/62
f 37/72/63 39/73/63 40/74/63
f 37/75/64 40/74/64 41/76/64
f 37/77/65 41/76/65 42/71/65
f 38/68/66 42/71/66 47/78/66
f 39/69/67 38/68/67 43/79/67
f 40/74/68 39/73/68 44/80/68
f 41/76/69 40/74/69 45/81/69
f 42/71/70 41/76/70 46/82/70
f 38/68/71 47/78/71 43/79/71
f 39/69/72 43/79/72 44/83/72
f 40/74/73 44/80/73 45/81/73
f 41/76/74 45/81/74 46/82/74
f 42/71/75 46/82/75 47/78/75
f 43/79/76 47/78/76 48/84/76
f 44/83/77 43/79/77 48/85/77
f 45/81/78 44/80/78 48/86/78
f 46/82/79 45/81/79 48/87/79
f 47/78/80 46/82/80 48/88/80
o Icosphere.004
v -1.997657 4.995313 -2.939080
v -1.274057 5.548098 -2.413361
v -2.274042 5.548098 -2.088440
v -2.892081 5.548098 -2.939080
v -2.274042 5.548098 -3.789721
v -1.274057 5.548098 -3.464800
v -1.721272 6.442528 -2.088440
v -2.721256 6.442528 -2.413361
v -2.721256 6.442528 -3.464800
v -1.721272 6.442528 -3.789721
v -1.103232 6.442528 -2.939080
v -1.997657 6.995313 -2.939080
vt 0.818181 0.000000
vt 0.727272 0.157461
vt 0.909090 0.157461
vt 0.636363 0.000000
vt 0.545454 0.157461
vt 0.090909 0.000000
vt 0.000000 0.157461
vt 0.181818 0.157461
vt 0.272727 0.000000
vt 0.363636 0.157461
vt 0.454545 0.000000
vt 0.636363 0.314921
vt 0.818181 0.314921
vt 0.090909 0.314921
vt 0.272727 0.314921
vt 0.454545 0.314921
vt 1.000000 0.314921
vt 0.727272 0.472382
vt 0.909090 0.472382
vt 0.181818 0.472382
vt 0.363636 0.472382
vt 0.545454 0.472382
vn 0.1876 -0.7947 0.5774
vn 0.6071 -0.7947 0.0000
vn -0.4911 -0.7947 0.3568
vn -0.4911 -0.7947 -0.3568
vn 0.1876 -0.7947 -0.5774
vn 0.9822 -0.1876 0.0000
vn 0.3035 -0.1876 0.9342
vn -0.7946 -0.1876 0.5774
vn -0.7946 -0.1876 -0.5774
vn 0.3035 -0.1876 -0.9342
vn 0.7946 0.1876 0.5774
vn -0.3035 0.1876 0.9342
vn -0.9822 0.1876 0.0000
vn -0.3035 0.1876 -0.9342
vn 0.7946 0.1876 -0.5774
vn 0.4911 0.7947 0.3568
vn -0.1876 0.7947 0.5774
vn -0.6071 0.7947 0.0000
vn -0.1876 0.7947 -0.5774
vn 0.4911 0.7947 -0.3568
usemtl None
s off
f 49/89/81 50/90/81 51/91/81
f 50/90/82 49/92/82 54/93/82
f 49/94/83 51/95/83 52/96/83
f 49/97/84 52/96/84 53/98/84
f 49/99/85 53/98/85 54/93/85
f 50/90/86 54/93/86 59/100/86
f 51/91/87 50/90/87 55/101/87
f 52/96/88 51/95/88 56/102/88
f 53/98/89 52/96/89 57/103/89
f 54/93/90 53/98/90 58/104/90
f 50/90/91 59/100/91 55/101/91
f 51/91/92 55/101/92 56/105/92
f 52/96/93 56/102/93 57/103/93
f 53/98/94 57/103/94 58/104/94
f 54/93/95 58/104/95 59/100/95
f 55/101/96 59/100/96 60/106/96
f 56/105/97 55/101/97 60/107/97
f 57/103/98 56/102/98 60/108/98
f 58/104/99 57/103/99 60/109/99
f 59/100/100 58/104/100 60/110/100
o Cone
v 0.000000 4.524284 -1.475716
v 0.287898 4.524284 -1.447361
v 0.564732 4.524284 -1.363384
v 0.819864 4.524284 -1.227013
v 1.043489 4.524284 -1.043489
v 1.227013 4.524284 -0.819864
v 1.363384 4.524284 -0.564732
v 1.447361 4.524284 -0.287898
v 1.475716 4.524284 -0.000000
v 1.447361 4.524284 0.287898
v 1.363384 4.524284 0.564732
v 1.227013 4.524284 0.819864
v 1.043489 4.524284 1.043489
v 0.819864 4.524284 1.227013
v 0.564732 4.524284 1.363384
v 0.287898 4.524284 1.447361
v -0.000000 4.524284 1.475716
v -0.287899 4.524284 1.447361
v -0.564733 4.524284 1.363384
v -0.819865 4.524284 1.227013
v -1.043490 4.524284 1.043488
v -1.227014 4.524284 0.819863
v -1.363384 4.524284 0.564731
v -1.447361 4.524284 0.287897
v -1.475716 4.524284 -0.000001
v -1.447360 4.524284 -0.287899
v -1.363383 4.524284 -0.564734
v -1.227012 4.524284 -0.819866
v -1.043488 4.524284 -1.043490
v -0.819862 4.524284 -1.227014
v -0.564730 4.524284 -1.363385
v -0.287896 4.524284 -1.447361
v 0.000000 7.475716 0.000000
v 0.000000 7.475716 0.000000
v 0.015921 4.605108 -1.637364
v 0.303819 4.605108 -1.609009
v 0.000000 7.657144 -0.000000
v 0.641301 4.605108 -1.506634
v 0.896433 4.605108 -1.370264
v 1.169049 4.605108 -1.146533
v 1.352573 4.605108 -0.922908
v 1.518820 4.605108 -0.611883
v 1.602796 4.605108 -0.335049
v 1.637364 4.605108 0.015921
v 1.609009 4.605108 0.303819
v 1.506635 4.605108 0.641301
v 1.370264 4.605108 0.896433
v 1.146533 4.605108 1.169049
v 0.922908 4.605108 1.352573
v 0.611883 4.605108 1.518820
v 0.335048 4.605108 1.602796
v -0.015921 4.605108 1.637364
v -0.303820 4.605108 1.609008
v -0.641302 4.605108 1.506634
v -0.896434 4.605108 1.370263
v -1.169050 4.605108 1.146533
v -1.352574 4.605108 0.922907
v -1.518820 4.605108 0.611882
v -1.602797 4.605108 0.335047
v -1.637364 4.605108 -0.015923
v -1.609008 4.605108 -0.303821
v -1.506634 4.605108 -0.641303
v -1.370263 4.605108 -0.896435
v -1.146532 4.605108 -1.169050
v -0.922907 4.605108 -1.352574
v -0.611881 4.605108 -1.518821
v -0.335046 4.605108 -1.602797
vt 0.471731 0.341844
vt 0.250000 0.250000
vt 0.250000 0.250000
vt 0.471731 0.341844
vt 0.296822 0.485388
vt 0.341844 0.471731
vt 0.028269 0.341844
vt 0.028269 0.341844
vt 0.383337 0.449553
vt 0.419706 0.419706
vt 0.883337 0.050447
vt 0.919706 0.080294
vt 0.919706 0.080294
vt 0.883337 0.050447
vt 0.449553 0.383337
vt 0.116663 0.050447
vt 0.116663 0.050447
vt 0.485388 0.296822
vt 0.490000 0.250000
vt 0.419706 0.080294
vt 0.419706 0.080294
vt 0.485388 0.203178
vt 0.471731 0.158156
vt 0.616663 0.050447
vt 0.658156 0.028269
vt 0.658156 0.028269
vt 0.616663 0.050447
vt 0.449553 0.116663
vt 0.449553 0.383337
vt 0.383337 0.050447
vt 0.341844 0.028269
vt 0.014612 0.296822
vt 0.014612 0.296822
vt 0.296822 0.014612
vt 0.250000 0.010000
vt 0.158156 0.028269
vt 0.158156 0.028269
vt 0.203178 0.014612
vt 0.949553 0.383337
vt 0.919706 0.419706
vt 0.919706 0.419706
vt 0.949553 0.383337
vt 0.080294 0.080294
vt 0.514612 0.296822
vt 0.510000 0.250000
vt 0.510000 0.250000
vt 0.514612 0.296822
vt 0.050447 0.116663
vt 0.028269 0.158156
vt 0.449553 0.116663
vt 0.014611 0.203179
vt 0.010000 0.250000
vt 0.203179 0.485389
vt 0.203179 0.485389
vt 0.419706 0.419706
vt 0.050447 0.383337
vt 0.080295 0.419706
vt 0.010000 0.250000
vt 0.116663 0.449553
vt 0.158156 0.471731
vt 0.750000 0.490000
vt 0.796822 0.485388
vt 0.841844 0.471731
vt 0.883337 0.449553
vt 0.971731 0.341844
vt 0.985388 0.296822
vt 0.990000 0.250000
vt 0.985388 0.203178
vt 0.971731 0.158156
vt 0.949553 0.116663
vt 0.841844 0.028269
vt 0.796822 0.014612
vt 0.750000 0.010000
vt 0.703178 0.014612
vt 0.580294 0.080294
vt 0.550447 0.116663
vt 0.528269 0.158156
vt 0.514611 0.203179
vt 0.528269 0.341844
vt 0.550447 0.383337
vt 0.580295 0.419706
vt 0.616663 0.449553
vt 0.658156 0.471731
vt 0.703179 0.485389
vt 0.971731 0.158156
vt 0.949553 0.116663
vt 0.250000 0.490000
vt 0.250000 0.490000
vt 0.296822 0.485388
vt 0.341844 0.471731
vt 0.383337 0.449553
vt 0.485388 0.296822
vt 0.490000 0.250000
vt 0.485388 0.203178
vt 0.471731 0.158156
vt 0.383337 0.050447
vt 0.341844 0.028269
vt 0.296822 0.014612
vt 0.250000 0.010000
vt 0.203178 0.014612
vt 0.080294 0.080294
vt 0.050447 0.116663
vt 0.028269 0.158156
vt 0.014611 0.203179
vt 0.050447 0.383337
vt 0.080295 0.419706
vt 0.116663 0.449553
vt 0.158156 0.471731
vt 0.528269 0.341844
vt 0.550447 0.383337
vt 0.971731 0.341844
vt 0.985388 0.296822
vt 0.750000 0.490000
vt 0.796822 0.485388
vt 0.580294 0.080294
vt 0.550447 0.116663
vt 0.841844 0.028269
vt 0.796822 0.014612
vt 0.580295 0.419706
vt 0.616663 0.449553
vt 0.990000 0.250000
vt 0.985388 0.203178
vt 0.528269 0.158156
vt 0.514611 0.203179
vt 0.841844 0.471731
vt 0.883337 0.449553
vt 0.750000 0.010000
vt 0.703178 0.014612
vt 0.658156 0.471731
vt 0.703179 0.485389
vn -0.3305 0.0262 -0.9434
vn 0.2599 0.4455 -0.8567
vn -0.4334 0.0262 0.9008
vn 0.5680 0.4455 -0.6921
vn 0.2826 -0.8953 0.3444
vn 0.7896 0.4455 -0.4220
vn -0.8608 0.0262 -0.5082
vn 0.8910 0.4455 -0.0878
vn 0.7452 0.0262 -0.6664
vn 0.8567 0.4455 0.2599
vn -0.2100 -0.8953 0.3929
vn 0.6921 0.4455 0.5680
vn 0.6008 0.0262 0.7989
vn 0.4220 0.4455 0.7896
vn 0.1401 0.0262 -0.9898
vn 0.0878 0.4455 0.8910
vn 0.9008 0.0262 0.4334
vn -0.2599 0.4455 0.8567
vn 0.3444 -0.8953 -0.2826
vn -0.5680 0.4455 0.6921
vn -0.4433 -0.8953 -0.0437
vn -0.7896 0.4455 0.4220
vn -0.5082 0.0262 0.8608
vn -0.8910 0.4455 0.0878
vn 0.9681 0.0262 -0.2494
vn -0.8567 0.4455 -0.2599
vn -0.6664 0.0262 -0.7452
vn -0.6921 0.4455 -0.5680
vn -0.0557 0.0262 0.9981
vn -0.4220 0.4455 -0.7896
vn 0.0000 -1.0000 -0.0000
vn 0.3929 -0.8953 0.2100
vn -0.0878 0.4455 -0.8910
vn 0.0864 0.4713 -0.8777
vn 0.4158 0.4713 -0.7778
vn 0.6818 0.4713 -0.5595
vn 0.8440 0.4713 -0.2560
vn 0.8777 0.4713 0.0864
vn 0.7778 0.4713 0.4158
vn 0.5595 0.4713 0.6818
vn 0.2560 0.4713 0.8440
vn -0.0864 0.4713 0.8777
vn -0.4158 0.4713 0.7778
vn -0.6818 0.4713 0.5595
vn -0.8440 0.4713 0.2560
vn -0.8777 0.4713 -0.0864
vn -0.7778 0.4713 -0.4158
vn -0.5595 0.4713 -0.6818
vn -0.2560 0.4713 -0.8440
vn -0.7989 0.0262 0.6008
vn -0.3929 -0.8953 -0.2100
vn 0.4263 -0.8953 -0.1293
vn 0.6664 0.0262 0.7452
vn 0.0437 -0.8953 -0.4433
vn 0.5082 0.0262 -0.8608
vn 0.2494 0.0262 0.9681
vn -0.3444 -0.8953 0.2826
vn -0.9981 0.0262 -0.0557
vn 0.9434 0.0262 -0.3305
vn -0.6008 0.0262 -0.7989
vn 0.9898 0.0262 0.1401
vn 0.1293 -0.8953 0.4263
vn -0.7452 0.0262 0.6664
vn 0.0557 0.0262 -0.9981
vn -0.9681 0.0262 0.2494
vn -0.2826 -0.8953 -0.3444
vn 0.4433 -0.8953 0.0437
vn 0.3305 0.0262 0.9434
vn -0.9008 0.0262 -0.4334
vn 0.7989 0.0262 -0.6008
vn -0.1401 0.0262 0.9898
vn -0.4263 -0.8953 0.1293
vn 0.2100 -0.8953 -0.3929
vn 0.9981 0.0262 0.0557
vn -0.2494 0.0262 -0.9681
vn 0.8608 0.0262 0.5082
vn -0.0437 -0.8953 0.4433
vn -0.9434 0.0262 0.3305
vn 0.4334 0.0262 -0.9008
vn -0.9898 0.0262 -0.1401
vn -0.1293 -0.8953 -0.4263
usemtl None
s off
f 67/111/101 93/112/101 97/113/101 102/114/101
f 62/115/102 93/112/102 63/116/102
f 87/117/103 93/112/103 97/113/103 122/118/103
f 64/119/104 93/112/104 65/120/104
f 74/121/105 73/122/105 108/123/105 109/124/105
f 66/125/106 93/112/106 67/111/106
f 93/112/107 80/126/107 115/127/107 97/113/107
f 68/128/108 93/112/108 69/129/108
f 73/130/109 93/112/109 97/113/109 108/131/109
f 70/132/110 93/112/110 71/133/110
f 80/134/111 79/135/111 114/136/111 115/137/111
f 72/138/112 93/112/112 73/130/112
f 93/112/113 66/125/113 101/139/113 97/113/113
f 74/140/114 93/112/114 75/141/114
f 93/112/115 86/142/115 121/143/115 97/113/115
f 76/144/116 93/112/116 77/145/116
f 79/146/117 93/112/117 97/113/117 114/147/117
f 78/148/118 93/112/118 79/146/118
f 66/149/119 65/150/119 100/151/119 101/152/119
f 80/126/120 93/112/120 81/153/120
f 86/154/121 85/155/121 120/156/121 121/157/121
f 82/158/122 93/112/122 83/159/122
f 93/112/123 72/138/123 107/160/123 97/113/123
f 84/161/124 93/112/124 85/162/124
f 93/112/125 92/163/125 127/164/125 97/113/125
f 86/142/126 93/112/126 87/117/126
f 65/120/127 93/112/127 97/113/127 100/165/127
f 88/166/128 93/112/128 89/167/128
f 85/162/129 93/112/129 97/113/129 120/168/129
f 90/169/130 93/112/130 91/170/130
f 61/171/131 62/172/131 63/173/131 64/174/131 65/150/131 66/149/131 67/175/131 68/176/131 69/177/131 70/178/131 71/179/131 72/180/131 73/122/131 74/121/131 75/181/131 76/182/131 77/183/131 78/184/131 79/135/131 80/134/131 81/185/131 82/186/131 83/187/131 84/188/131 85/155/131 86/154/131 87/189/131 88/190/131 89/191/131 90/192/131 91/193/131 92/194/131
f 72/180/132 71/179/132 106/195/132 107/196/132
f 92/163/133 93/112/133 61/197/133
f 95/198/134 97/113/134 96/199/134
f 98/200/135 97/113/135 99/201/135
f 100/165/136 97/113/136 101/139/136
f 102/114/137 97/113/137 103/202/137
f 104/203/138 97/113/138 105/204/138
f 106/205/139 97/113/139 107/160/139
f 108/131/140 97/113/140 109/206/140
f 110/207/141 97/113/141 111/208/141
f 112/209/142 97/113/142 113/210/142
f 114/147/143 97/113/143 115/127/143
f 116/211/144 97/113/144 117/212/144
f 118/213/145 97/113/145 119/214/145
f 120/168/146 97/113/146 121/143/146
f 122/118/147 97/113/147 123/215/147
f 124/216/148 97/113/148 125/217/148
f 126/218/149 97/113/149 127/164/149
f 93/112/150 74/140/150 109/206/150 97/113/150
f 88/190/151 87/189/151 122/219/151 123/220/151
f 68/176/152 67/175/152 102/221/152 103/222/152
f 81/153/153 93/112/153 97/113/153 116/211/153
f 62/172/154 61/171/154 95/223/154 96/224/154
f 93/112/155 88/166/155 123/215/155 97/113/155
f 93/112/156 68/128/156 103/202/156 97/113/156
f 82/186/157 81/185/157 116/225/157 117/226/157
f 61/197/158 93/112/158 97/113/158 95/198/158
f 75/141/159 93/112/159 97/113/159 110/207/159
f 93/112/160 82/158/160 117/212/160 97/113/160
f 93/112/161 62/115/161 96/199/161 97/113/161
f 76/182/162 75/181/162 110/227/162 111/228/162
f 89/167/163 93/112/163 97/113/163 124/216/163
f 69/129/164 93/112/164 97/113/164 104/203/164
f 93/112/165 76/144/165 111/208/165 97/113/165
f 90/192/166 89/191/166 124/229/166 125/230/166
f 70/178/167 69/177/167 104/231/167 105/232/167
f 83/159/168 93/112/168 97/113/168 118/213/168
f 63/116/169 93/112/169 97/113/169 98/200/169
f 93/112/170 90/169/170 125/217/170 97/113/170
f 93/112/171 70/132/171 105/204/171 97/113/171
f 84/188/172 83/187/172 118/233/172 119/234/172
f 64/174/173 63/173/173 98/235/173 99/236/173
f 77/145/174 93/112/174 97/113/174 112/209/174
f 93/112/175 84/161/175 119/214/175 97/113/175
f 93/112/176 64/119/176 99/201/176 97/113/176
f 78/184/177 77/183/177 112/237/177 113/238/177
f 91/170/178 93/112/178 97/113/178 126/218/178
f 71/133/179 93/112/179 97/113/179 106/205/179
f 93/112/180 78/148/180 113/210/180 97/113/180
f 92/194/181 91/193/181 126/239/181 127/240/181
l 93 94
